<svg width="38" height="38" viewBox="0 0 38 38" fill="none" xmlns="http://www.w3.org/2000/svg">
<g filter="url(#filter0_d_3558_20)">
<path fill-rule="evenodd" clip-rule="evenodd" d="M19 0C10.7157 0 4 6.71573 4 15C4 23.2843 10.7157 30 19 30C27.2843 30 34 23.2843 34 15C34 6.71573 27.2843 0 19 0ZM18.5822 12.7112L18.5508 12.1922C18.4563 10.8469 19.2852 9.6182 20.5967 9.14154C21.0794 8.97206 21.8978 8.95087 22.4329 9.09917C22.6427 9.16273 23.0414 9.37458 23.3247 9.56524L23.8388 9.91479L24.4054 9.73472C24.7202 9.63939 25.1398 9.4805 25.3287 9.37458C25.5071 9.27924 25.6645 9.22628 25.6645 9.25806C25.6645 9.43813 25.2762 10.0525 24.951 10.3915C24.5103 10.8681 24.6362 10.9105 25.5281 10.5927C26.0632 10.4126 26.0737 10.4126 25.9687 10.6139C25.9058 10.7198 25.5805 11.0906 25.2343 11.4295C24.6467 12.0121 24.6152 12.0757 24.6152 12.5629C24.6152 13.315 24.2585 14.8827 23.9018 15.7407C23.2408 17.3507 21.8243 19.0138 20.4079 19.8506C18.4144 21.0264 15.7598 21.3229 13.525 20.6344C12.78 20.4014 11.5 19.8082 11.5 19.7023C11.5 19.6705 11.8882 19.6281 12.3604 19.6175C13.3466 19.5964 14.3329 19.321 15.1723 18.8337L15.7388 18.4947L15.0883 18.2723C14.165 17.9545 13.3361 17.2236 13.1263 16.5351C13.0633 16.3127 13.0843 16.3021 13.6719 16.3021L14.2804 16.2915L13.7663 16.0479C13.1578 15.7407 12.6017 15.2217 12.3289 14.692C12.1295 14.3107 11.8777 13.3468 11.9512 13.2726C11.9721 13.2408 12.1925 13.3044 12.4443 13.3891C13.1683 13.654 13.2627 13.5904 12.843 13.1455C12.0561 12.3405 11.8148 11.1435 12.1925 10.0101L12.3709 9.50169L13.0633 10.1902C14.4798 11.5778 16.148 12.404 18.0576 12.6477L18.5822 12.7112Z" fill="white"/>
</g>
<defs>
<filter id="filter0_d_3558_20" x="0" y="0" width="38" height="38" filterUnits="userSpaceOnUse" color-interpolation-filters="sRGB">
<feFlood flood-opacity="0" result="BackgroundImageFix"/>
<feColorMatrix in="SourceAlpha" type="matrix" values="0 0 0 0 0 0 0 0 0 0 0 0 0 0 0 0 0 0 127 0" result="hardAlpha"/>
<feOffset dy="4"/>
<feGaussianBlur stdDeviation="2"/>
<feComposite in2="hardAlpha" operator="out"/>
<feColorMatrix type="matrix" values="0 0 0 0 0 0 0 0 0 0 0 0 0 0 0 0 0 0 0.25 0"/>
<feBlend mode="normal" in2="BackgroundImageFix" result="effect1_dropShadow_3558_20"/>
<feBlend mode="normal" in="SourceGraphic" in2="effect1_dropShadow_3558_20" result="shape"/>
</filter>
</defs>
</svg>
